<svg width="155px" height="155px">
  <line x1="77.5" y1="10" x2="130" y2="55" style="stroke: rgb(0,0,0); stroke-width: 1;" />
  <line x1="130" y1="55" x2="130" y2="100" style="stroke: rgb(0,0,0); stroke-width: 1;" />
  <line x1="130" y1="100" x2="130" y2="145" style="stroke: rgb(0,0,0); stroke-width: 1;" />
  <line x1="77.5" y1="10" x2="100" y2="55" style="stroke: rgb(0,0,0); stroke-width: 1;" />
  <line x1="100" y1="55" x2="145" y2="100" style="stroke: rgb(0,0,0); stroke-width: 1;" />
  <line x1="100" y1="55" x2="115" y2="100" style="stroke: rgb(0,0,0); stroke-width: 1;" />
  <line x1="100" y1="55" x2="85" y2="100" style="stroke: rgb(0,0,0); stroke-width: 1;" />
  <line x1="85" y1="100" x2="100" y2="145" style="stroke: rgb(0,0,0); stroke-width: 1;" />
  <line x1="85" y1="100" x2="70" y2="145" style="stroke: rgb(0,0,0); stroke-width: 1;" />
  <line x1="100" y1="55" x2="55" y2="100" style="stroke: rgb(0,0,0); stroke-width: 1;" />
  <line x1="55" y1="100" x2="70" y2="145" style="stroke: rgb(0,0,0); stroke-width: 1;" />
  <line x1="55" y1="100" x2="40" y2="145" style="stroke: rgb(0,0,0); stroke-width: 1;" />
  <line x1="77.5" y1="10" x2="25" y2="55" style="stroke: rgb(0,0,0); stroke-width: 1;" />
  <line x1="25" y1="55" x2="25" y2="100" style="stroke: rgb(0,0,0); stroke-width: 1;" />
  <line x1="25" y1="100" x2="40" y2="145" style="stroke: rgb(0,0,0); stroke-width: 1;" />
  <line x1="25" y1="100" x2="10" y2="145" style="stroke: rgb(0,0,0); stroke-width: 1;" />
  <rect x="68.5" y="1" width="18" height="18" fill="white" stroke="black" />
  <text x="77" y="15" text-anchor="middle">0</text>
  <rect x="121" y="46" width="18" height="18" fill="white" stroke="black" />
  <text x="130" y="60" text-anchor="middle">9</text>
  <rect x="121" y="91" width="18" height="18" fill="white" stroke="black" />
  <text x="130" y="105" text-anchor="middle">11</text>
  <rect x="121" y="136" width="18" height="18" fill="white" stroke="black" />
  <text x="130" y="150" text-anchor="middle">12</text>
  <rect x="91" y="46" width="18" height="18" fill="white" stroke="black" />
  <text x="100" y="60" text-anchor="middle">2</text>
  <rect x="136" y="91" width="18" height="18" fill="white" stroke="black" />
  <text x="145" y="105" text-anchor="middle">14</text>
  <rect x="106" y="91" width="18" height="18" fill="white" stroke="black" />
  <text x="115" y="105" text-anchor="middle">6</text>
  <rect x="76" y="91" width="18" height="18" fill="white" stroke="black" />
  <text x="85" y="105" text-anchor="middle">5</text>
  <rect x="91" y="136" width="18" height="18" fill="white" stroke="black" />
  <text x="100" y="150" text-anchor="middle">16</text>
  <rect x="61" y="136" width="18" height="18" fill="white" stroke="black" />
  <text x="70" y="150" text-anchor="middle">7</text>
  <rect x="46" y="91" width="18" height="18" fill="white" stroke="black" />
  <text x="55" y="105" text-anchor="middle">3</text>
  <rect x="61" y="136" width="18" height="18" fill="white" stroke="black" />
  <text x="70" y="150" text-anchor="middle">15</text>
  <rect x="31" y="136" width="18" height="18" fill="white" stroke="black" />
  <text x="40" y="150" text-anchor="middle">8</text>
  <rect x="16" y="46" width="18" height="18" fill="white" stroke="black" />
  <text x="25" y="60" text-anchor="middle">1</text>
  <rect x="16" y="91" width="18" height="18" fill="white" stroke="black" />
  <text x="25" y="105" text-anchor="middle">4</text>
  <rect x="31" y="136" width="18" height="18" fill="white" stroke="black" />
  <text x="40" y="150" text-anchor="middle">13</text>
  <rect x="1" y="136" width="18" height="18" fill="white" stroke="black" />
  <text x="10" y="150" text-anchor="middle">10</text>
</svg>